<mxfile host="app.diagrams.net" modified="2020-04-16T12:19:52.985Z" agent="5.0 (Windows NT 10.0; Win64; x64) AppleWebKit/537.36 (KHTML, like Gecko) Chrome/79.0.3945.88 Safari/537.36" etag="NGa3MXnRx2r-HdXwMRib" version="12.9.13" type="github">
  <diagram name="Page-1" id="b5b7bab2-c9e2-2cf4-8b2a-24fd1a2a6d21">
    <mxGraphModel dx="1425" dy="1239" grid="1" gridSize="10" guides="1" tooltips="1" connect="1" arrows="1" fold="1" page="1" pageScale="1" pageWidth="827" pageHeight="1169" background="#ffffff" math="0" shadow="0">
      <root>
        <mxCell id="0" />
        <mxCell id="1" parent="0" />
        <mxCell id="2EnLh_xssAPyPzixqsfc-40" value="" style="rounded=0;whiteSpace=wrap;html=1;strokeColor=#000000;" vertex="1" parent="1">
          <mxGeometry x="880" y="370" width="670" height="820" as="geometry" />
        </mxCell>
        <mxCell id="2EnLh_xssAPyPzixqsfc-41" value="cos" style="rounded=0;whiteSpace=wrap;html=1;" vertex="1" parent="1">
          <mxGeometry x="1330" y="610" width="120" height="60" as="geometry" />
        </mxCell>
        <mxCell id="2EnLh_xssAPyPzixqsfc-42" value="cloudera oss server" style="rounded=0;whiteSpace=wrap;html=1;" vertex="1" parent="1">
          <mxGeometry x="960" y="610" width="120" height="60" as="geometry" />
        </mxCell>
        <mxCell id="2EnLh_xssAPyPzixqsfc-43" value="mysql" style="shape=cylinder;whiteSpace=wrap;html=1;boundedLbl=1;backgroundOutline=1;" vertex="1" parent="1">
          <mxGeometry x="990" y="480" width="60" height="80" as="geometry" />
        </mxCell>
        <mxCell id="2EnLh_xssAPyPzixqsfc-44" value="" style="rounded=0;whiteSpace=wrap;html=1;strokeColor=#000000;" vertex="1" parent="1">
          <mxGeometry x="900" y="875" width="610" height="150" as="geometry" />
        </mxCell>
        <mxCell id="2EnLh_xssAPyPzixqsfc-45" value="oss_client" style="rounded=1;whiteSpace=wrap;html=1;" vertex="1" parent="1">
          <mxGeometry x="940" y="950" width="120" height="60" as="geometry" />
        </mxCell>
        <mxCell id="2EnLh_xssAPyPzixqsfc-46" value="oss_client" style="rounded=1;whiteSpace=wrap;html=1;" vertex="1" parent="1">
          <mxGeometry x="1120" y="950" width="120" height="60" as="geometry" />
        </mxCell>
        <mxCell id="2EnLh_xssAPyPzixqsfc-47" value="" style="endArrow=none;dashed=1;html=1;" edge="1" parent="1">
          <mxGeometry width="50" height="50" relative="1" as="geometry">
            <mxPoint x="1250" y="979.4999999999998" as="sourcePoint" />
            <mxPoint x="1340" y="979.4999999999998" as="targetPoint" />
          </mxGeometry>
        </mxCell>
        <mxCell id="2EnLh_xssAPyPzixqsfc-48" value="oss_client" style="rounded=1;whiteSpace=wrap;html=1;" vertex="1" parent="1">
          <mxGeometry x="1355" y="950" width="110" height="60" as="geometry" />
        </mxCell>
        <mxCell id="2EnLh_xssAPyPzixqsfc-50" value="sys-log" style="rounded=1;whiteSpace=wrap;html=1;strokeColor=#000000;" vertex="1" parent="1">
          <mxGeometry x="1430" y="755" width="70" height="30" as="geometry" />
        </mxCell>
        <mxCell id="2EnLh_xssAPyPzixqsfc-51" value="text-log" style="rounded=1;whiteSpace=wrap;html=1;strokeColor=#000000;" vertex="1" parent="1">
          <mxGeometry x="1350" y="755" width="70" height="30" as="geometry" />
        </mxCell>
        <mxCell id="2EnLh_xssAPyPzixqsfc-52" value="version-info" style="rounded=1;whiteSpace=wrap;html=1;strokeColor=#000000;" vertex="1" parent="1">
          <mxGeometry x="940" y="755" width="70" height="30" as="geometry" />
        </mxCell>
        <mxCell id="2EnLh_xssAPyPzixqsfc-53" value="device-info" style="rounded=1;whiteSpace=wrap;html=1;strokeColor=#000000;" vertex="1" parent="1">
          <mxGeometry x="1040" y="755" width="70" height="30" as="geometry" />
        </mxCell>
        <mxCell id="2EnLh_xssAPyPzixqsfc-54" value="config-file" style="rounded=1;whiteSpace=wrap;html=1;strokeColor=#000000;" vertex="1" parent="1">
          <mxGeometry x="1270" y="755" width="70" height="30" as="geometry" />
        </mxCell>
        <mxCell id="2EnLh_xssAPyPzixqsfc-55" value="oss_client_cluster" style="text;html=1;strokeColor=none;fillColor=none;align=center;verticalAlign=middle;whiteSpace=wrap;rounded=0;" vertex="1" parent="1">
          <mxGeometry x="1130" y="910" width="110" height="20" as="geometry" />
        </mxCell>
        <mxCell id="2EnLh_xssAPyPzixqsfc-58" value="" style="endArrow=classic;html=1;strokeColor=#000000;exitX=0.5;exitY=0;exitDx=0;exitDy=0;" edge="1" parent="1" source="2EnLh_xssAPyPzixqsfc-53">
          <mxGeometry width="50" height="50" relative="1" as="geometry">
            <mxPoint x="1390" y="760" as="sourcePoint" />
            <mxPoint x="1020" y="670" as="targetPoint" />
          </mxGeometry>
        </mxCell>
        <mxCell id="2EnLh_xssAPyPzixqsfc-60" value="&lt;span style=&quot;font-family: &amp;#34;microsoft yahei&amp;#34; , &amp;#34;arial&amp;#34; , &amp;#34;helvetica&amp;#34; , sans-serif ; font-size: 14px ; text-align: left&quot;&gt;Extranet&lt;/span&gt;" style="text;html=1;strokeColor=none;fillColor=none;align=center;verticalAlign=middle;whiteSpace=wrap;rounded=0;" vertex="1" parent="1">
          <mxGeometry x="1185" y="400" width="40" height="20" as="geometry" />
        </mxCell>
        <mxCell id="2EnLh_xssAPyPzixqsfc-62" value="" style="endArrow=classic;html=1;strokeColor=#000000;exitX=0.5;exitY=0;exitDx=0;exitDy=0;entryX=0.5;entryY=1;entryDx=0;entryDy=0;" edge="1" parent="1" source="2EnLh_xssAPyPzixqsfc-51" target="2EnLh_xssAPyPzixqsfc-41">
          <mxGeometry width="50" height="50" relative="1" as="geometry">
            <mxPoint x="1410" y="730" as="sourcePoint" />
            <mxPoint x="1460" y="680" as="targetPoint" />
          </mxGeometry>
        </mxCell>
        <mxCell id="2EnLh_xssAPyPzixqsfc-63" value="" style="endArrow=classic;html=1;strokeColor=#000000;exitX=0.5;exitY=0;exitDx=0;exitDy=0;" edge="1" parent="1" source="2EnLh_xssAPyPzixqsfc-50" target="2EnLh_xssAPyPzixqsfc-41">
          <mxGeometry width="50" height="50" relative="1" as="geometry">
            <mxPoint x="1380" y="720" as="sourcePoint" />
            <mxPoint x="1430" y="670" as="targetPoint" />
          </mxGeometry>
        </mxCell>
        <mxCell id="2EnLh_xssAPyPzixqsfc-69" value="" style="rounded=0;whiteSpace=wrap;html=1;strokeColor=#000000;" vertex="1" parent="1">
          <mxGeometry x="1660" y="370" width="800" height="820" as="geometry" />
        </mxCell>
        <mxCell id="2EnLh_xssAPyPzixqsfc-70" value="&lt;span style=&quot;font-family: &amp;#34;microsoft yahei&amp;#34; , &amp;#34;arial&amp;#34; , &amp;#34;helvetica&amp;#34; , sans-serif ; font-size: 14px ; text-align: left&quot;&gt;Intranet&lt;/span&gt;" style="text;html=1;strokeColor=none;fillColor=none;align=center;verticalAlign=middle;whiteSpace=wrap;rounded=0;" vertex="1" parent="1">
          <mxGeometry x="2040" y="400" width="40" height="20" as="geometry" />
        </mxCell>
        <mxCell id="2EnLh_xssAPyPzixqsfc-72" style="edgeStyle=orthogonalEdgeStyle;rounded=0;orthogonalLoop=1;jettySize=auto;html=1;exitX=0.5;exitY=1;exitDx=0;exitDy=0;strokeColor=#000000;" edge="1" parent="1" source="2EnLh_xssAPyPzixqsfc-50" target="2EnLh_xssAPyPzixqsfc-50">
          <mxGeometry relative="1" as="geometry" />
        </mxCell>
        <mxCell id="2EnLh_xssAPyPzixqsfc-73" value="verson-release" style="rounded=1;whiteSpace=wrap;html=1;strokeColor=#000000;" vertex="1" parent="1">
          <mxGeometry x="1150" y="755" width="90" height="30" as="geometry" />
        </mxCell>
        <mxCell id="2EnLh_xssAPyPzixqsfc-77" value="" style="endArrow=classic;startArrow=classic;html=1;strokeColor=#000000;" edge="1" parent="1">
          <mxGeometry width="50" height="50" relative="1" as="geometry">
            <mxPoint x="970" y="755" as="sourcePoint" />
            <mxPoint x="1020" y="670" as="targetPoint" />
          </mxGeometry>
        </mxCell>
        <mxCell id="2EnLh_xssAPyPzixqsfc-78" value="data_deal_server" style="rounded=0;whiteSpace=wrap;html=1;strokeColor=#000000;" vertex="1" parent="1">
          <mxGeometry x="1780" y="610" width="110" height="60" as="geometry" />
        </mxCell>
        <mxCell id="2EnLh_xssAPyPzixqsfc-79" value="" style="endArrow=classic;html=1;strokeColor=#000000;exitX=1;exitY=0.5;exitDx=0;exitDy=0;" edge="1" parent="1" source="2EnLh_xssAPyPzixqsfc-41" target="2EnLh_xssAPyPzixqsfc-78">
          <mxGeometry width="50" height="50" relative="1" as="geometry">
            <mxPoint x="1690" y="800" as="sourcePoint" />
            <mxPoint x="1740" y="750" as="targetPoint" />
          </mxGeometry>
        </mxCell>
        <mxCell id="2EnLh_xssAPyPzixqsfc-81" value="CDB" style="shape=cylinder;whiteSpace=wrap;html=1;boundedLbl=1;backgroundOutline=1;strokeColor=#000000;" vertex="1" parent="1">
          <mxGeometry x="2125" y="600" width="60" height="80" as="geometry" />
        </mxCell>
        <mxCell id="2EnLh_xssAPyPzixqsfc-134" style="edgeStyle=orthogonalEdgeStyle;rounded=0;orthogonalLoop=1;jettySize=auto;html=1;exitX=0.75;exitY=0;exitDx=0;exitDy=0;strokeColor=#000000;" edge="1" parent="1" source="2EnLh_xssAPyPzixqsfc-82" target="2EnLh_xssAPyPzixqsfc-43">
          <mxGeometry relative="1" as="geometry">
            <Array as="points">
              <mxPoint x="2298" y="520" />
            </Array>
          </mxGeometry>
        </mxCell>
        <mxCell id="2EnLh_xssAPyPzixqsfc-82" value="" style="rounded=0;whiteSpace=wrap;html=1;strokeColor=#000000;" vertex="1" parent="1">
          <mxGeometry x="1870" y="850" width="570" height="90" as="geometry" />
        </mxCell>
        <mxCell id="2EnLh_xssAPyPzixqsfc-84" value="verson-info" style="rounded=1;whiteSpace=wrap;html=1;strokeColor=#000000;" vertex="1" parent="1">
          <mxGeometry x="1890" y="895" width="70" height="30" as="geometry" />
        </mxCell>
        <mxCell id="2EnLh_xssAPyPzixqsfc-90" value="device-info" style="rounded=1;whiteSpace=wrap;html=1;strokeColor=#000000;" vertex="1" parent="1">
          <mxGeometry x="1980" y="895" width="70" height="30" as="geometry" />
        </mxCell>
        <mxCell id="2EnLh_xssAPyPzixqsfc-91" value="config-file" style="rounded=1;whiteSpace=wrap;html=1;strokeColor=#000000;" vertex="1" parent="1">
          <mxGeometry x="2070" y="895" width="70" height="30" as="geometry" />
        </mxCell>
        <mxCell id="2EnLh_xssAPyPzixqsfc-92" value="log-file" style="rounded=1;whiteSpace=wrap;html=1;strokeColor=#000000;" vertex="1" parent="1">
          <mxGeometry x="2160" y="895" width="70" height="30" as="geometry" />
        </mxCell>
        <mxCell id="2EnLh_xssAPyPzixqsfc-93" value="run-status" style="rounded=1;whiteSpace=wrap;html=1;strokeColor=#000000;" vertex="1" parent="1">
          <mxGeometry x="2250" y="895" width="70" height="30" as="geometry" />
        </mxCell>
        <mxCell id="2EnLh_xssAPyPzixqsfc-94" value="error-info" style="rounded=1;whiteSpace=wrap;html=1;strokeColor=#000000;" vertex="1" parent="1">
          <mxGeometry x="2340" y="895" width="70" height="30" as="geometry" />
        </mxCell>
        <mxCell id="2EnLh_xssAPyPzixqsfc-112" value="web_client" style="rounded=0;whiteSpace=wrap;html=1;strokeColor=#000000;" vertex="1" parent="1">
          <mxGeometry x="2070" y="1040" width="190" height="60" as="geometry" />
        </mxCell>
        <mxCell id="2EnLh_xssAPyPzixqsfc-114" value="" style="endArrow=classic;startArrow=classic;html=1;strokeColor=#000000;exitX=0.444;exitY=0.006;exitDx=0;exitDy=0;exitPerimeter=0;" edge="1" parent="1" source="2EnLh_xssAPyPzixqsfc-112" target="2EnLh_xssAPyPzixqsfc-82">
          <mxGeometry width="50" height="50" relative="1" as="geometry">
            <mxPoint x="2156.2000000000003" y="1041.26" as="sourcePoint" />
            <mxPoint x="2153.8" y="965" as="targetPoint" />
          </mxGeometry>
        </mxCell>
        <mxCell id="2EnLh_xssAPyPzixqsfc-115" value="web interface" style="text;html=1;strokeColor=none;fillColor=none;align=center;verticalAlign=middle;whiteSpace=wrap;rounded=0;" vertex="1" parent="1">
          <mxGeometry x="2160" y="980" width="100" height="20" as="geometry" />
        </mxCell>
        <mxCell id="2EnLh_xssAPyPzixqsfc-116" value="" style="endArrow=classic;html=1;strokeColor=#000000;exitX=1;exitY=0.5;exitDx=0;exitDy=0;" edge="1" parent="1" source="2EnLh_xssAPyPzixqsfc-78" target="2EnLh_xssAPyPzixqsfc-81">
          <mxGeometry width="50" height="50" relative="1" as="geometry">
            <mxPoint x="1670" y="890" as="sourcePoint" />
            <mxPoint x="1720" y="840" as="targetPoint" />
          </mxGeometry>
        </mxCell>
        <mxCell id="2EnLh_xssAPyPzixqsfc-120" value="" style="endArrow=classic;startArrow=classic;html=1;strokeColor=#000000;entryX=0.5;entryY=1;entryDx=0;entryDy=0;" edge="1" parent="1" source="2EnLh_xssAPyPzixqsfc-42" target="2EnLh_xssAPyPzixqsfc-43">
          <mxGeometry width="50" height="50" relative="1" as="geometry">
            <mxPoint x="1610" y="890" as="sourcePoint" />
            <mxPoint x="1660" y="840" as="targetPoint" />
          </mxGeometry>
        </mxCell>
        <mxCell id="2EnLh_xssAPyPzixqsfc-126" value="&lt;span&gt;&amp;nbsp;vewsion release&lt;/span&gt;" style="rounded=1;whiteSpace=wrap;html=1;strokeColor=#000000;" vertex="1" parent="1">
          <mxGeometry x="1735" y="830" width="70" height="50" as="geometry" />
        </mxCell>
        <mxCell id="2EnLh_xssAPyPzixqsfc-127" value="&lt;span&gt;config&lt;br&gt;&amp;nbsp;file&lt;/span&gt;" style="rounded=1;whiteSpace=wrap;html=1;strokeColor=#000000;" vertex="1" parent="1">
          <mxGeometry x="1735" y="905" width="70" height="45" as="geometry" />
        </mxCell>
        <mxCell id="2EnLh_xssAPyPzixqsfc-135" value="" style="endArrow=classic;startArrow=classic;html=1;strokeColor=#000000;" edge="1" parent="1" target="2EnLh_xssAPyPzixqsfc-41">
          <mxGeometry width="50" height="50" relative="1" as="geometry">
            <mxPoint x="1300" y="755" as="sourcePoint" />
            <mxPoint x="1350" y="705" as="targetPoint" />
          </mxGeometry>
        </mxCell>
        <mxCell id="2EnLh_xssAPyPzixqsfc-138" value="" style="endArrow=classic;startArrow=classic;html=1;strokeColor=#000000;exitX=0.124;exitY=0.001;exitDx=0;exitDy=0;exitPerimeter=0;entryX=0.5;entryY=1;entryDx=0;entryDy=0;" edge="1" parent="1" source="2EnLh_xssAPyPzixqsfc-44" target="2EnLh_xssAPyPzixqsfc-52">
          <mxGeometry width="50" height="50" relative="1" as="geometry">
            <mxPoint x="980" y="764.9999999999998" as="sourcePoint" />
            <mxPoint x="1030" y="679.9999999999998" as="targetPoint" />
          </mxGeometry>
        </mxCell>
        <mxCell id="2EnLh_xssAPyPzixqsfc-139" value="" style="endArrow=classic;html=1;strokeColor=#000000;entryX=0.5;entryY=1;entryDx=0;entryDy=0;" edge="1" parent="1" target="2EnLh_xssAPyPzixqsfc-53">
          <mxGeometry width="50" height="50" relative="1" as="geometry">
            <mxPoint x="1075" y="873" as="sourcePoint" />
            <mxPoint x="1600" y="660" as="targetPoint" />
          </mxGeometry>
        </mxCell>
        <mxCell id="2EnLh_xssAPyPzixqsfc-141" value="" style="endArrow=classic;startArrow=classic;html=1;strokeColor=#000000;exitX=0.124;exitY=0.001;exitDx=0;exitDy=0;exitPerimeter=0;entryX=0.5;entryY=1;entryDx=0;entryDy=0;" edge="1" parent="1">
          <mxGeometry width="50" height="50" relative="1" as="geometry">
            <mxPoint x="1305.32" y="875.1499999999999" as="sourcePoint" />
            <mxPoint x="1304.68" y="785" as="targetPoint" />
          </mxGeometry>
        </mxCell>
        <mxCell id="2EnLh_xssAPyPzixqsfc-142" value="" style="endArrow=classic;html=1;strokeColor=#000000;entryX=0.5;entryY=1;entryDx=0;entryDy=0;" edge="1" parent="1">
          <mxGeometry width="50" height="50" relative="1" as="geometry">
            <mxPoint x="1389.71" y="873" as="sourcePoint" />
            <mxPoint x="1389.71" y="785" as="targetPoint" />
          </mxGeometry>
        </mxCell>
        <mxCell id="2EnLh_xssAPyPzixqsfc-143" value="" style="endArrow=classic;html=1;strokeColor=#000000;entryX=0.5;entryY=1;entryDx=0;entryDy=0;" edge="1" parent="1">
          <mxGeometry width="50" height="50" relative="1" as="geometry">
            <mxPoint x="1465" y="873" as="sourcePoint" />
            <mxPoint x="1465" y="785" as="targetPoint" />
          </mxGeometry>
        </mxCell>
        <mxCell id="2EnLh_xssAPyPzixqsfc-144" value="oss_server" style="text;html=1;strokeColor=none;fillColor=none;align=center;verticalAlign=middle;whiteSpace=wrap;rounded=0;" vertex="1" parent="1">
          <mxGeometry x="2135" y="860" width="40" height="20" as="geometry" />
        </mxCell>
        <mxCell id="2EnLh_xssAPyPzixqsfc-145" value="" style="endArrow=classic;html=1;strokeColor=#000000;exitX=0.426;exitY=0.985;exitDx=0;exitDy=0;exitPerimeter=0;" edge="1" parent="1" source="2EnLh_xssAPyPzixqsfc-73">
          <mxGeometry width="50" height="50" relative="1" as="geometry">
            <mxPoint x="1910" y="830" as="sourcePoint" />
            <mxPoint x="1190" y="874" as="targetPoint" />
          </mxGeometry>
        </mxCell>
        <mxCell id="2EnLh_xssAPyPzixqsfc-146" value="" style="endArrow=classic;html=1;strokeColor=#000000;entryX=0.5;entryY=0;entryDx=0;entryDy=0;exitX=0.095;exitY=1.032;exitDx=0;exitDy=0;exitPerimeter=0;" edge="1" parent="1" source="2EnLh_xssAPyPzixqsfc-41" target="2EnLh_xssAPyPzixqsfc-73">
          <mxGeometry width="50" height="50" relative="1" as="geometry">
            <mxPoint x="1390" y="670" as="sourcePoint" />
            <mxPoint x="1840" y="745" as="targetPoint" />
          </mxGeometry>
        </mxCell>
        <mxCell id="2EnLh_xssAPyPzixqsfc-147" value="" style="endArrow=classic;html=1;strokeColor=#000000;exitX=-0.001;exitY=0.118;exitDx=0;exitDy=0;exitPerimeter=0;entryX=0.999;entryY=0.606;entryDx=0;entryDy=0;entryPerimeter=0;" edge="1" parent="1" source="2EnLh_xssAPyPzixqsfc-82" target="2EnLh_xssAPyPzixqsfc-126">
          <mxGeometry width="50" height="50" relative="1" as="geometry">
            <mxPoint x="1850" y="850" as="sourcePoint" />
            <mxPoint x="1900" y="800" as="targetPoint" />
          </mxGeometry>
        </mxCell>
        <mxCell id="2EnLh_xssAPyPzixqsfc-148" value="" style="endArrow=classic;html=1;strokeColor=#000000;exitX=-0.001;exitY=0.118;exitDx=0;exitDy=0;exitPerimeter=0;entryX=0.999;entryY=0.606;entryDx=0;entryDy=0;entryPerimeter=0;" edge="1" parent="1">
          <mxGeometry width="50" height="50" relative="1" as="geometry">
            <mxPoint x="1869.9999999999998" y="925.3200000000002" as="sourcePoint" />
            <mxPoint x="1805.4999999999998" y="925" as="targetPoint" />
          </mxGeometry>
        </mxCell>
        <mxCell id="2EnLh_xssAPyPzixqsfc-149" value="" style="endArrow=classic;html=1;strokeColor=#000000;exitX=0;exitY=0.5;exitDx=0;exitDy=0;entryX=1;entryY=0.75;entryDx=0;entryDy=0;" edge="1" parent="1" source="2EnLh_xssAPyPzixqsfc-126" target="2EnLh_xssAPyPzixqsfc-41">
          <mxGeometry width="50" height="50" relative="1" as="geometry">
            <mxPoint x="1870" y="800" as="sourcePoint" />
            <mxPoint x="1920" y="750" as="targetPoint" />
          </mxGeometry>
        </mxCell>
        <mxCell id="2EnLh_xssAPyPzixqsfc-150" value="" style="endArrow=classic;html=1;strokeColor=#000000;exitX=0;exitY=0.5;exitDx=0;exitDy=0;entryX=1;entryY=0.75;entryDx=0;entryDy=0;" edge="1" parent="1" source="2EnLh_xssAPyPzixqsfc-127">
          <mxGeometry width="50" height="50" relative="1" as="geometry">
            <mxPoint x="1735" y="870" as="sourcePoint" />
            <mxPoint x="1450" y="670" as="targetPoint" />
          </mxGeometry>
        </mxCell>
        <mxCell id="2EnLh_xssAPyPzixqsfc-151" value="" style="endArrow=classic;html=1;strokeColor=#000000;exitX=0.639;exitY=1.005;exitDx=0;exitDy=0;exitPerimeter=0;entryX=0.518;entryY=0.013;entryDx=0;entryDy=0;entryPerimeter=0;" edge="1" parent="1" source="2EnLh_xssAPyPzixqsfc-81" target="2EnLh_xssAPyPzixqsfc-82">
          <mxGeometry width="50" height="50" relative="1" as="geometry">
            <mxPoint x="1970" y="730" as="sourcePoint" />
            <mxPoint x="2020" y="680" as="targetPoint" />
          </mxGeometry>
        </mxCell>
      </root>
    </mxGraphModel>
  </diagram>
</mxfile>
